<?xml version="1.0" encoding="utf-8"?>
<!-- Generator: Adobe Illustrator 27.3.1, SVG Export Plug-In . SVG Version: 6.00 Build 0)  -->
<svg version="1.1" id="s-0" xmlns:svgjs="http://svgjs.dev/svgjs"
	 xmlns="http://www.w3.org/2000/svg" xmlns:xlink="http://www.w3.org/1999/xlink" x="0px" y="0px" viewBox="0 0 228 232"
	 style="enable-background:new 0 0 228 232;" xml:space="preserve">
<style type="text/css">
	.st0{display:none;}
	.st1{display:inline;}
	.st2{fill:#528265;}
	.st3{fill:#FFFFFF;}
	.st4{display:none;fill:none;}
</style>
<g transform="matrix(1,0,0,1,-0.6060491970478665,0.14607489751914216)">
	<g id="tight-bounds" transform="matrix(1,0,0,1,0.2399954820309631,-0.05792625246448324)">
		<g>
			<g transform="matrix(1,0,0,1,136.687561046584,34.99765520090192)" class="st0">
				<g id="textblocktransform" class="st1">
					<g>
						<g transform="matrix(1,0,0,1,0,0)">
							<path id="text-0" class="st2" d="M297,146.8h-44.9l-0.4-7.6l13.7-3.1c0.3-0.6,0.5-2,0.6-4.2s0.3-5.6,0.4-10.2
								c0.1-4.6,0.1-10.7,0.1-18.2l0,0V58.6c0-7.8,0-14-0.1-18.5c-0.1-4.6-0.2-8-0.4-10.2c-0.2-2.2-0.4-3.6-0.6-4l0,0l-13.7-3.1
								l0.4-7.6H297l0.5,7.6l-13.7,3.1c-0.3,0.5-0.6,1.8-0.8,4c-0.2,2.1-0.4,5.5-0.5,10.1c-0.1,4.6-0.1,10.8-0.1,18.8l0,0v44.9
								c0,7.6,0,13.7,0.1,18.3c0.1,4.5,0.2,7.9,0.5,10.1c0.2,2.2,0.5,3.6,0.8,4.2l0,0l13.7,3.1L297,146.8z M215.3,146.8h-44.4
								l-0.5-7.6l13.9-3.1c0.2-0.8,0.3-2.4,0.3-5c0.1-2.5,0.2-6.1,0.2-10.7c0.1-4.6,0.1-10.2,0.1-16.9l0,0V58.6
								c0-6.9,0-12.7-0.1-17.3c-0.1-4.6-0.1-8.2-0.2-10.8c-0.1-2.5-0.2-4.1-0.3-4.7l0,0l-13.9-3.1l0.5-7.6h44.4l0.4,7.6l-13.7,3.1
								c-0.2,0.5-0.4,1.8-0.6,4c-0.2,2.2-0.4,5.6-0.4,10.2c-0.1,4.6-0.1,10.7-0.1,18.5l0,0v44.9c0,7.5,0,13.5,0.1,18.2
								c0.1,4.6,0.2,8,0.4,10.2c0.2,2.2,0.4,3.6,0.6,4.2l0,0l13.7,3.1L215.3,146.8z M198.7,85.1L198.7,85.1V73
								c2.7,0.1,7.1,0.3,13.2,0.4c6.2,0.2,13.5,0.2,22,0.2l0,0c8.5,0,15.8-0.1,21.8-0.2c6-0.2,10.2-0.3,12.8-0.4l0,0v12.1
								c-3.6-0.4-8.1-0.7-13.5-0.8c-5.4-0.1-12.4-0.1-21.1-0.1l0,0c-8.8,0-16,0-21.6,0.1C206.7,84.4,202.1,84.6,198.7,85.1z
								 M424,116l-8.7,31.9c-4.5-0.6-8-0.9-10.5-1c-2.5-0.1-5.1-0.1-7.6-0.1l0,0h-77l-0.5-7.6l13.5-3.1c0.3-0.8,0.5-2.4,0.6-5
								c0.1-2.5,0.2-6.1,0.2-10.8c0.1-4.7,0.1-10.3,0.1-16.8l0,0V58.6c0-6.7,0-12.5-0.1-17.1c-0.1-4.7-0.1-8.3-0.2-10.9
								c-0.1-2.5-0.2-4.1-0.6-4.7l0,0l-13.5-3.1l0.5-7.6h72.9c1.9,0,3.8,0,5.5,0c1.7,0,3.7-0.1,5.8-0.2s4.8-0.4,8-0.7l0,0l4,28.7
								l-9.2,1.4l-7.4-18.7c-0.9-0.2-2.1-0.3-3.6-0.3c-1.5-0.1-3.1-0.1-4.7-0.1l0,0h-27.8c-2.8,0-5.3,0-7.3,0.1
								c-2,0.1-4.1,0.2-6.2,0.6l0,0c0,0.6,0,2.3-0.1,5.1c-0.1,2.8-0.2,5.9-0.2,9.6c-0.1,3.6-0.1,6.9-0.1,10.1l0,0v64.4
								c0,2.5,0,5.2,0.1,8c0.1,2.8,0.1,5.4,0.2,7.8c0.1,2.3,0.1,3.9,0.1,4.6l0,0c2,0.3,4,0.5,6.1,0.7c2.1,0.2,4.3,0.2,6.7,0.2l0,0
								h24.5c3.1,0,5.7,0,7.8-0.1c2.1-0.1,3.8-0.2,5.2-0.3c1.3-0.2,2.3-0.3,2.9-0.5l0,0l11.7-21.1L424,116z M400.2,100.5h-8.8
								l-2.7-15.5c-0.9-0.3-2.2-0.5-3.8-0.6c-1.7-0.2-3.7-0.2-6.1-0.2l0,0h-18.4c-1.8,0-3.9,0.1-6.2,0.2c-2.3,0.1-4.8,0.3-7.5,0.4
								l0,0V73.4c2.7,0.2,5.2,0.3,7.5,0.4c2.3,0.1,4.4,0.1,6.2,0.1l0,0h18.4c2.4,0,4.4,0,6.1-0.1c1.7-0.1,2.9-0.3,3.8-0.6l0,0
								l2.7-15.9h8.8V100.5z M543.4,115.2l-8.8,32.5c-1.5-0.2-3.3-0.3-5.5-0.5c-2.2-0.2-4.3-0.3-6.4-0.4c-2.1-0.1-4.1-0.1-6.1-0.1
								l0,0h-72.9l-0.7-7.6l13.7-3.1c0.2-0.8,0.3-2.4,0.5-4.8c0.2-2.5,0.3-6,0.3-10.7c0.1-4.7,0.1-10.3,0.1-17.1l0,0V58.6
								c0-7,0-12.8,0-17.3c0-4.5-0.1-8-0.2-10.5c-0.2-2.5-0.4-4.1-0.7-4.7l0,0l-13.7-3.4l0.7-7.6h49.4l0.5,8.1L475,26
								c-0.3,0.5-0.5,1.8-0.7,4.1c-0.2,2.3-0.3,5.8-0.3,10.3c-0.1,4.6-0.1,10.6-0.1,18.1l0,0v44.9c0,7.5,0,14.2,0.1,20.2
								c0.1,6,0.2,9.6,0.3,11l0,0c1.9,0.2,4,0.3,6.1,0.5c2.1,0.2,4.3,0.2,6.7,0.2l0,0h19.8c3.3,0,6.1-0.1,8.5-0.2
								c2.4-0.2,4.9-0.4,7.4-0.7l0,0l11.4-21.3L543.4,115.2z M689.9,27.6l5.6,17.5l-40.6,102.4h-9L600.2,25.8l-11.2-3.1l0.4-7.6
								h40.2l0.5,7.6l-11.2,2.9l37,101h-2.7L689.9,27.6z M735.2,147.5h-9L681.4,25.8l-11.2-3.1l0.5-7.6h42l0.5,7.6l-13.5,2.9
								l36.4,101h-3.2l36.2-100.8l-15.7-3.1l0.5-7.6h40.2l0.4,7.6L783,25.8L735.2,147.5z M870.3,148.8L870.3,148.8
								c-12.9,0-24.2-2.8-34.1-8.5c-9.9-5.7-17.6-13.6-23.2-23.8s-8.4-21.9-8.4-35.3l0,0c0-13,2.9-24.7,8.6-35
								c5.8-10.3,13.7-18.4,23.7-24.3S858.3,13,871,13l0,0c12.4,0,23.3,2.8,32.6,8.5c9.4,5.7,16.7,13.6,22,23.6c5.3,10,8,21.7,8,35
								l0,0c0,9.6-1.6,18.5-4.8,26.8c-3.2,8.3-7.7,15.6-13.3,21.9c-5.7,6.3-12.4,11.2-20.1,14.7C887.6,147,879.3,148.8,870.3,148.8z
								 M872.6,138L872.6,138c8.5,0,15.9-2.2,22.1-6.5c6.2-4.4,11.1-10.5,14.6-18.4c3.5-7.9,5.2-17.1,5.2-27.6l0,0
								c0-12.4-1.9-23.3-5.8-32.5c-3.9-9.3-9.3-16.6-16.3-21.9c-7-5.3-15-8-24.1-8l0,0c-13.5,0-24.1,4.9-31.9,14.7
								c-7.9,9.8-11.8,23.1-11.8,39.8l0,0c0,11.7,2.1,22.1,6.2,31.2c4.1,9.1,9.8,16.3,17.1,21.4C855.2,135.5,863.4,138,872.6,138z
								 M1057.5,115.2l-8.7,32.5c-1.5-0.2-3.3-0.3-5.5-0.5c-2.1-0.2-4.3-0.3-6.4-0.4c-2.1-0.1-4.1-0.1-6.1-0.1l0,0h-72.9l-0.6-7.6
								l13.7-3.1c0.2-0.8,0.3-2.4,0.4-4.8c0.2-2.5,0.3-6,0.4-10.7c0.1-4.7,0.1-10.3,0.1-17.1l0,0V58.6c0-7,0-12.8,0-17.3
								c0-4.5-0.1-8-0.2-10.5c-0.2-2.5-0.4-4.1-0.6-4.7l0,0l-13.7-3.4l0.6-7.6h49.4l0.4,8.1L989,26c-0.3,0.5-0.5,1.8-0.7,4.1
								c-0.1,2.3-0.2,5.8-0.3,10.3c-0.1,4.6-0.1,10.6-0.1,18.1l0,0v44.9c0,7.5,0,14.2,0.1,20.2c0.1,6,0.2,9.6,0.3,11l0,0
								c2,0.2,4,0.3,6.1,0.5c2.1,0.2,4.4,0.2,6.8,0.2l0,0h19.8c3.3,0,6.1-0.1,8.5-0.2c2.4-0.2,4.9-0.4,7.4-0.7l0,0l11.4-21.3
								L1057.5,115.2z M1118.1,146.8h-47.2l-0.5-7.6l12.6-3.1c0.2-0.6,0.3-2,0.3-4.3c0.1-2.2,0.2-5.5,0.2-9.9
								c0.1-4.4,0.1-10,0.1-16.8l0,0l0.2-51.4c0-6.2,0-11.2-0.1-15.1c-0.1-3.9-0.2-6.8-0.2-9c-0.1-2.1-0.2-3.4-0.3-3.8l0,0
								l-13.7-3.1l0.5-7.6h72.3c1.9,0,3.8,0,5.5,0c1.7,0,3.7-0.1,5.8-0.2c2.2-0.2,4.8-0.4,7.8-0.7l0,0l4.3,28.7l-9.4,1.4l-7.4-18.7
								c-0.7-0.2-1.8-0.3-3.2-0.3c-1.4-0.1-3-0.1-4.6-0.1l0,0h-27.2c-2.3,0-4.8,0-7.5,0.1c-2.8,0.1-5,0.2-6.6,0.3l0,0
								c0,0.6,0,1.9-0.1,3.7c-0.1,1.9-0.1,4.1-0.1,6.7c0,2.6,0,5.5,0,8.6c0,3.2,0,6.2,0,9.2l0,0l0.2,48.2c0,8.4,0,14.9,0.1,19.5
								c0.1,4.6,0.1,8,0.2,10.2c0.1,2.2,0.2,3.6,0.4,4.2l0,0l18.2,2.7L1118.1,146.8z M1149.3,102.1h-8.5l-2.9-16.1
								c-0.7-0.3-2-0.5-3.9-0.7c-1.9-0.2-4.1-0.2-6.6-0.2l0,0h-20.5c-1.2,0-2.7,0-4.4,0c-1.7,0-4,0.1-6.8,0.2l0,0V74.1
								c2,0.2,3.9,0.3,5.7,0.3c1.9,0.1,3.7,0.1,5.5,0.1l0,0h20.5c3,0,5.3-0.1,6.8-0.2c1.6-0.2,2.8-0.4,3.7-0.7l0,0l2.9-15.5h8.5
								V102.1z"/>
						</g>
					</g>
				</g>
			</g>
			<g>
				<g id="icon-0">
					<g transform="matrix(1,0,0,1,24.991558271941074,16.067608716121754)">
						<g>
							<g>
								<polygon class="st3" points="64,70.7 78.5,85.8 52.8,81.4 50.6,70.5 								"/>
								<path class="st3" d="M158.6,38.8L158.6,38.8l-1.7-30.4l-7.3-24.1L109.4,16L94,17.4L78.8,16L38.6-15.7L31.3,8.4l-1.7,30.4
									l0,0L1,124.9l93,90.5l93.1-90.5L158.6,38.8z M8.5,123.4l24.2-82.5l19-20.9L94,27.1l42.5-7.1l19,20.9l24.2,82.5L94,197.3
									L8.5,123.4z"/>
								<polygon class="st3" points="124.2,70.7 109.7,85.8 135.4,81.4 137.6,70.5 								"/>
								<path class="st3" d="M174.3,114.6l-19.3-28l9.2,19.3l-10.1-4.4l1.6,10.7l-11.7-3.9l-17.4,16l-6.2,20.8l-5.5,8.4l-5.8,2.4
									h-7.7l9.8-12.7l1-9.2l-4-14.3l-4-17.2l5.5-16.8l-9.4,16.8l3.6,17.8l6.2,14.4L94,139.9l-16-5.1l6.2-14.4l3.6-17.8l-9.4-16.8
									l5.5,16.8l-4,17.2l-4,14.3l1,9.2l9.8,12.7h-7.7l-5.8-2.4l-5.5-8.4l-6.2-20.8l-17.4-16l-11.8,3.9l1.6-10.7L24,105.9l9.2-19.3
									l-19.3,28l13.7-5.9l-1.5,10.9l16.6-5L58.3,127l6.8,19.9l6.2,9.2l6.5,2.7l1,7.1l15.2,7.4l15.3-7.4l1-7.1l6.5-2.7l6.2-9.2
									l6.8-19.9l15.6-12.4l16.6,5l-1.5-10.9L174.3,114.6z M106.3,164.5l-12.2,4.4l-12.2-4.4l-0.1-5.9L94,156l12.4,2.5L106.3,164.5
									z"/>
							</g>
						</g>
					</g>
				</g>
			</g>
		</g>
		<rect x="-36.9" y="-40" class="st4" width="1339.2" height="311.9"/>
	</g>
</g>
</svg>
